G75*
%MOIN*%
%OFA0B0*%
%FSLAX25Y25*%
%IPPOS*%
%LPD*%
%AMOC8*
5,1,8,0,0,1.08239X$1,22.5*
%
%ADD10C,0.00000*%
D10*
X0001000Y0001000D02*
X0001000Y0394701D01*
X0315961Y0394701D01*
X0315961Y0001000D01*
X0001000Y0001000D01*
X0010311Y0011000D02*
X0010313Y0011052D01*
X0010319Y0011104D01*
X0010329Y0011155D01*
X0010342Y0011205D01*
X0010360Y0011255D01*
X0010381Y0011302D01*
X0010405Y0011348D01*
X0010434Y0011392D01*
X0010465Y0011434D01*
X0010499Y0011473D01*
X0010536Y0011510D01*
X0010576Y0011543D01*
X0010619Y0011574D01*
X0010663Y0011601D01*
X0010709Y0011625D01*
X0010758Y0011645D01*
X0010807Y0011661D01*
X0010858Y0011674D01*
X0010909Y0011683D01*
X0010961Y0011688D01*
X0011013Y0011689D01*
X0011065Y0011686D01*
X0011117Y0011679D01*
X0011168Y0011668D01*
X0011218Y0011654D01*
X0011267Y0011635D01*
X0011314Y0011613D01*
X0011359Y0011588D01*
X0011403Y0011559D01*
X0011444Y0011527D01*
X0011483Y0011492D01*
X0011518Y0011454D01*
X0011551Y0011413D01*
X0011581Y0011371D01*
X0011607Y0011326D01*
X0011630Y0011279D01*
X0011649Y0011230D01*
X0011665Y0011180D01*
X0011677Y0011130D01*
X0011685Y0011078D01*
X0011689Y0011026D01*
X0011689Y0010974D01*
X0011685Y0010922D01*
X0011677Y0010870D01*
X0011665Y0010820D01*
X0011649Y0010770D01*
X0011630Y0010721D01*
X0011607Y0010674D01*
X0011581Y0010629D01*
X0011551Y0010587D01*
X0011518Y0010546D01*
X0011483Y0010508D01*
X0011444Y0010473D01*
X0011403Y0010441D01*
X0011359Y0010412D01*
X0011314Y0010387D01*
X0011267Y0010365D01*
X0011218Y0010346D01*
X0011168Y0010332D01*
X0011117Y0010321D01*
X0011065Y0010314D01*
X0011013Y0010311D01*
X0010961Y0010312D01*
X0010909Y0010317D01*
X0010858Y0010326D01*
X0010807Y0010339D01*
X0010758Y0010355D01*
X0010709Y0010375D01*
X0010663Y0010399D01*
X0010619Y0010426D01*
X0010576Y0010457D01*
X0010536Y0010490D01*
X0010499Y0010527D01*
X0010465Y0010566D01*
X0010434Y0010608D01*
X0010405Y0010652D01*
X0010381Y0010698D01*
X0010360Y0010745D01*
X0010342Y0010795D01*
X0010329Y0010845D01*
X0010319Y0010896D01*
X0010313Y0010948D01*
X0010311Y0011000D01*
X0160311Y0011000D02*
X0160313Y0011052D01*
X0160319Y0011104D01*
X0160329Y0011155D01*
X0160342Y0011205D01*
X0160360Y0011255D01*
X0160381Y0011302D01*
X0160405Y0011348D01*
X0160434Y0011392D01*
X0160465Y0011434D01*
X0160499Y0011473D01*
X0160536Y0011510D01*
X0160576Y0011543D01*
X0160619Y0011574D01*
X0160663Y0011601D01*
X0160709Y0011625D01*
X0160758Y0011645D01*
X0160807Y0011661D01*
X0160858Y0011674D01*
X0160909Y0011683D01*
X0160961Y0011688D01*
X0161013Y0011689D01*
X0161065Y0011686D01*
X0161117Y0011679D01*
X0161168Y0011668D01*
X0161218Y0011654D01*
X0161267Y0011635D01*
X0161314Y0011613D01*
X0161359Y0011588D01*
X0161403Y0011559D01*
X0161444Y0011527D01*
X0161483Y0011492D01*
X0161518Y0011454D01*
X0161551Y0011413D01*
X0161581Y0011371D01*
X0161607Y0011326D01*
X0161630Y0011279D01*
X0161649Y0011230D01*
X0161665Y0011180D01*
X0161677Y0011130D01*
X0161685Y0011078D01*
X0161689Y0011026D01*
X0161689Y0010974D01*
X0161685Y0010922D01*
X0161677Y0010870D01*
X0161665Y0010820D01*
X0161649Y0010770D01*
X0161630Y0010721D01*
X0161607Y0010674D01*
X0161581Y0010629D01*
X0161551Y0010587D01*
X0161518Y0010546D01*
X0161483Y0010508D01*
X0161444Y0010473D01*
X0161403Y0010441D01*
X0161359Y0010412D01*
X0161314Y0010387D01*
X0161267Y0010365D01*
X0161218Y0010346D01*
X0161168Y0010332D01*
X0161117Y0010321D01*
X0161065Y0010314D01*
X0161013Y0010311D01*
X0160961Y0010312D01*
X0160909Y0010317D01*
X0160858Y0010326D01*
X0160807Y0010339D01*
X0160758Y0010355D01*
X0160709Y0010375D01*
X0160663Y0010399D01*
X0160619Y0010426D01*
X0160576Y0010457D01*
X0160536Y0010490D01*
X0160499Y0010527D01*
X0160465Y0010566D01*
X0160434Y0010608D01*
X0160405Y0010652D01*
X0160381Y0010698D01*
X0160360Y0010745D01*
X0160342Y0010795D01*
X0160329Y0010845D01*
X0160319Y0010896D01*
X0160313Y0010948D01*
X0160311Y0011000D01*
X0305311Y0011000D02*
X0305313Y0011052D01*
X0305319Y0011104D01*
X0305329Y0011155D01*
X0305342Y0011205D01*
X0305360Y0011255D01*
X0305381Y0011302D01*
X0305405Y0011348D01*
X0305434Y0011392D01*
X0305465Y0011434D01*
X0305499Y0011473D01*
X0305536Y0011510D01*
X0305576Y0011543D01*
X0305619Y0011574D01*
X0305663Y0011601D01*
X0305709Y0011625D01*
X0305758Y0011645D01*
X0305807Y0011661D01*
X0305858Y0011674D01*
X0305909Y0011683D01*
X0305961Y0011688D01*
X0306013Y0011689D01*
X0306065Y0011686D01*
X0306117Y0011679D01*
X0306168Y0011668D01*
X0306218Y0011654D01*
X0306267Y0011635D01*
X0306314Y0011613D01*
X0306359Y0011588D01*
X0306403Y0011559D01*
X0306444Y0011527D01*
X0306483Y0011492D01*
X0306518Y0011454D01*
X0306551Y0011413D01*
X0306581Y0011371D01*
X0306607Y0011326D01*
X0306630Y0011279D01*
X0306649Y0011230D01*
X0306665Y0011180D01*
X0306677Y0011130D01*
X0306685Y0011078D01*
X0306689Y0011026D01*
X0306689Y0010974D01*
X0306685Y0010922D01*
X0306677Y0010870D01*
X0306665Y0010820D01*
X0306649Y0010770D01*
X0306630Y0010721D01*
X0306607Y0010674D01*
X0306581Y0010629D01*
X0306551Y0010587D01*
X0306518Y0010546D01*
X0306483Y0010508D01*
X0306444Y0010473D01*
X0306403Y0010441D01*
X0306359Y0010412D01*
X0306314Y0010387D01*
X0306267Y0010365D01*
X0306218Y0010346D01*
X0306168Y0010332D01*
X0306117Y0010321D01*
X0306065Y0010314D01*
X0306013Y0010311D01*
X0305961Y0010312D01*
X0305909Y0010317D01*
X0305858Y0010326D01*
X0305807Y0010339D01*
X0305758Y0010355D01*
X0305709Y0010375D01*
X0305663Y0010399D01*
X0305619Y0010426D01*
X0305576Y0010457D01*
X0305536Y0010490D01*
X0305499Y0010527D01*
X0305465Y0010566D01*
X0305434Y0010608D01*
X0305405Y0010652D01*
X0305381Y0010698D01*
X0305360Y0010745D01*
X0305342Y0010795D01*
X0305329Y0010845D01*
X0305319Y0010896D01*
X0305313Y0010948D01*
X0305311Y0011000D01*
X0305311Y0206000D02*
X0305313Y0206052D01*
X0305319Y0206104D01*
X0305329Y0206155D01*
X0305342Y0206205D01*
X0305360Y0206255D01*
X0305381Y0206302D01*
X0305405Y0206348D01*
X0305434Y0206392D01*
X0305465Y0206434D01*
X0305499Y0206473D01*
X0305536Y0206510D01*
X0305576Y0206543D01*
X0305619Y0206574D01*
X0305663Y0206601D01*
X0305709Y0206625D01*
X0305758Y0206645D01*
X0305807Y0206661D01*
X0305858Y0206674D01*
X0305909Y0206683D01*
X0305961Y0206688D01*
X0306013Y0206689D01*
X0306065Y0206686D01*
X0306117Y0206679D01*
X0306168Y0206668D01*
X0306218Y0206654D01*
X0306267Y0206635D01*
X0306314Y0206613D01*
X0306359Y0206588D01*
X0306403Y0206559D01*
X0306444Y0206527D01*
X0306483Y0206492D01*
X0306518Y0206454D01*
X0306551Y0206413D01*
X0306581Y0206371D01*
X0306607Y0206326D01*
X0306630Y0206279D01*
X0306649Y0206230D01*
X0306665Y0206180D01*
X0306677Y0206130D01*
X0306685Y0206078D01*
X0306689Y0206026D01*
X0306689Y0205974D01*
X0306685Y0205922D01*
X0306677Y0205870D01*
X0306665Y0205820D01*
X0306649Y0205770D01*
X0306630Y0205721D01*
X0306607Y0205674D01*
X0306581Y0205629D01*
X0306551Y0205587D01*
X0306518Y0205546D01*
X0306483Y0205508D01*
X0306444Y0205473D01*
X0306403Y0205441D01*
X0306359Y0205412D01*
X0306314Y0205387D01*
X0306267Y0205365D01*
X0306218Y0205346D01*
X0306168Y0205332D01*
X0306117Y0205321D01*
X0306065Y0205314D01*
X0306013Y0205311D01*
X0305961Y0205312D01*
X0305909Y0205317D01*
X0305858Y0205326D01*
X0305807Y0205339D01*
X0305758Y0205355D01*
X0305709Y0205375D01*
X0305663Y0205399D01*
X0305619Y0205426D01*
X0305576Y0205457D01*
X0305536Y0205490D01*
X0305499Y0205527D01*
X0305465Y0205566D01*
X0305434Y0205608D01*
X0305405Y0205652D01*
X0305381Y0205698D01*
X0305360Y0205745D01*
X0305342Y0205795D01*
X0305329Y0205845D01*
X0305319Y0205896D01*
X0305313Y0205948D01*
X0305311Y0206000D01*
X0305311Y0386000D02*
X0305313Y0386052D01*
X0305319Y0386104D01*
X0305329Y0386155D01*
X0305342Y0386205D01*
X0305360Y0386255D01*
X0305381Y0386302D01*
X0305405Y0386348D01*
X0305434Y0386392D01*
X0305465Y0386434D01*
X0305499Y0386473D01*
X0305536Y0386510D01*
X0305576Y0386543D01*
X0305619Y0386574D01*
X0305663Y0386601D01*
X0305709Y0386625D01*
X0305758Y0386645D01*
X0305807Y0386661D01*
X0305858Y0386674D01*
X0305909Y0386683D01*
X0305961Y0386688D01*
X0306013Y0386689D01*
X0306065Y0386686D01*
X0306117Y0386679D01*
X0306168Y0386668D01*
X0306218Y0386654D01*
X0306267Y0386635D01*
X0306314Y0386613D01*
X0306359Y0386588D01*
X0306403Y0386559D01*
X0306444Y0386527D01*
X0306483Y0386492D01*
X0306518Y0386454D01*
X0306551Y0386413D01*
X0306581Y0386371D01*
X0306607Y0386326D01*
X0306630Y0386279D01*
X0306649Y0386230D01*
X0306665Y0386180D01*
X0306677Y0386130D01*
X0306685Y0386078D01*
X0306689Y0386026D01*
X0306689Y0385974D01*
X0306685Y0385922D01*
X0306677Y0385870D01*
X0306665Y0385820D01*
X0306649Y0385770D01*
X0306630Y0385721D01*
X0306607Y0385674D01*
X0306581Y0385629D01*
X0306551Y0385587D01*
X0306518Y0385546D01*
X0306483Y0385508D01*
X0306444Y0385473D01*
X0306403Y0385441D01*
X0306359Y0385412D01*
X0306314Y0385387D01*
X0306267Y0385365D01*
X0306218Y0385346D01*
X0306168Y0385332D01*
X0306117Y0385321D01*
X0306065Y0385314D01*
X0306013Y0385311D01*
X0305961Y0385312D01*
X0305909Y0385317D01*
X0305858Y0385326D01*
X0305807Y0385339D01*
X0305758Y0385355D01*
X0305709Y0385375D01*
X0305663Y0385399D01*
X0305619Y0385426D01*
X0305576Y0385457D01*
X0305536Y0385490D01*
X0305499Y0385527D01*
X0305465Y0385566D01*
X0305434Y0385608D01*
X0305405Y0385652D01*
X0305381Y0385698D01*
X0305360Y0385745D01*
X0305342Y0385795D01*
X0305329Y0385845D01*
X0305319Y0385896D01*
X0305313Y0385948D01*
X0305311Y0386000D01*
X0160311Y0386000D02*
X0160313Y0386052D01*
X0160319Y0386104D01*
X0160329Y0386155D01*
X0160342Y0386205D01*
X0160360Y0386255D01*
X0160381Y0386302D01*
X0160405Y0386348D01*
X0160434Y0386392D01*
X0160465Y0386434D01*
X0160499Y0386473D01*
X0160536Y0386510D01*
X0160576Y0386543D01*
X0160619Y0386574D01*
X0160663Y0386601D01*
X0160709Y0386625D01*
X0160758Y0386645D01*
X0160807Y0386661D01*
X0160858Y0386674D01*
X0160909Y0386683D01*
X0160961Y0386688D01*
X0161013Y0386689D01*
X0161065Y0386686D01*
X0161117Y0386679D01*
X0161168Y0386668D01*
X0161218Y0386654D01*
X0161267Y0386635D01*
X0161314Y0386613D01*
X0161359Y0386588D01*
X0161403Y0386559D01*
X0161444Y0386527D01*
X0161483Y0386492D01*
X0161518Y0386454D01*
X0161551Y0386413D01*
X0161581Y0386371D01*
X0161607Y0386326D01*
X0161630Y0386279D01*
X0161649Y0386230D01*
X0161665Y0386180D01*
X0161677Y0386130D01*
X0161685Y0386078D01*
X0161689Y0386026D01*
X0161689Y0385974D01*
X0161685Y0385922D01*
X0161677Y0385870D01*
X0161665Y0385820D01*
X0161649Y0385770D01*
X0161630Y0385721D01*
X0161607Y0385674D01*
X0161581Y0385629D01*
X0161551Y0385587D01*
X0161518Y0385546D01*
X0161483Y0385508D01*
X0161444Y0385473D01*
X0161403Y0385441D01*
X0161359Y0385412D01*
X0161314Y0385387D01*
X0161267Y0385365D01*
X0161218Y0385346D01*
X0161168Y0385332D01*
X0161117Y0385321D01*
X0161065Y0385314D01*
X0161013Y0385311D01*
X0160961Y0385312D01*
X0160909Y0385317D01*
X0160858Y0385326D01*
X0160807Y0385339D01*
X0160758Y0385355D01*
X0160709Y0385375D01*
X0160663Y0385399D01*
X0160619Y0385426D01*
X0160576Y0385457D01*
X0160536Y0385490D01*
X0160499Y0385527D01*
X0160465Y0385566D01*
X0160434Y0385608D01*
X0160405Y0385652D01*
X0160381Y0385698D01*
X0160360Y0385745D01*
X0160342Y0385795D01*
X0160329Y0385845D01*
X0160319Y0385896D01*
X0160313Y0385948D01*
X0160311Y0386000D01*
X0160311Y0206000D02*
X0160313Y0206052D01*
X0160319Y0206104D01*
X0160329Y0206155D01*
X0160342Y0206205D01*
X0160360Y0206255D01*
X0160381Y0206302D01*
X0160405Y0206348D01*
X0160434Y0206392D01*
X0160465Y0206434D01*
X0160499Y0206473D01*
X0160536Y0206510D01*
X0160576Y0206543D01*
X0160619Y0206574D01*
X0160663Y0206601D01*
X0160709Y0206625D01*
X0160758Y0206645D01*
X0160807Y0206661D01*
X0160858Y0206674D01*
X0160909Y0206683D01*
X0160961Y0206688D01*
X0161013Y0206689D01*
X0161065Y0206686D01*
X0161117Y0206679D01*
X0161168Y0206668D01*
X0161218Y0206654D01*
X0161267Y0206635D01*
X0161314Y0206613D01*
X0161359Y0206588D01*
X0161403Y0206559D01*
X0161444Y0206527D01*
X0161483Y0206492D01*
X0161518Y0206454D01*
X0161551Y0206413D01*
X0161581Y0206371D01*
X0161607Y0206326D01*
X0161630Y0206279D01*
X0161649Y0206230D01*
X0161665Y0206180D01*
X0161677Y0206130D01*
X0161685Y0206078D01*
X0161689Y0206026D01*
X0161689Y0205974D01*
X0161685Y0205922D01*
X0161677Y0205870D01*
X0161665Y0205820D01*
X0161649Y0205770D01*
X0161630Y0205721D01*
X0161607Y0205674D01*
X0161581Y0205629D01*
X0161551Y0205587D01*
X0161518Y0205546D01*
X0161483Y0205508D01*
X0161444Y0205473D01*
X0161403Y0205441D01*
X0161359Y0205412D01*
X0161314Y0205387D01*
X0161267Y0205365D01*
X0161218Y0205346D01*
X0161168Y0205332D01*
X0161117Y0205321D01*
X0161065Y0205314D01*
X0161013Y0205311D01*
X0160961Y0205312D01*
X0160909Y0205317D01*
X0160858Y0205326D01*
X0160807Y0205339D01*
X0160758Y0205355D01*
X0160709Y0205375D01*
X0160663Y0205399D01*
X0160619Y0205426D01*
X0160576Y0205457D01*
X0160536Y0205490D01*
X0160499Y0205527D01*
X0160465Y0205566D01*
X0160434Y0205608D01*
X0160405Y0205652D01*
X0160381Y0205698D01*
X0160360Y0205745D01*
X0160342Y0205795D01*
X0160329Y0205845D01*
X0160319Y0205896D01*
X0160313Y0205948D01*
X0160311Y0206000D01*
X0010311Y0386000D02*
X0010313Y0386052D01*
X0010319Y0386104D01*
X0010329Y0386155D01*
X0010342Y0386205D01*
X0010360Y0386255D01*
X0010381Y0386302D01*
X0010405Y0386348D01*
X0010434Y0386392D01*
X0010465Y0386434D01*
X0010499Y0386473D01*
X0010536Y0386510D01*
X0010576Y0386543D01*
X0010619Y0386574D01*
X0010663Y0386601D01*
X0010709Y0386625D01*
X0010758Y0386645D01*
X0010807Y0386661D01*
X0010858Y0386674D01*
X0010909Y0386683D01*
X0010961Y0386688D01*
X0011013Y0386689D01*
X0011065Y0386686D01*
X0011117Y0386679D01*
X0011168Y0386668D01*
X0011218Y0386654D01*
X0011267Y0386635D01*
X0011314Y0386613D01*
X0011359Y0386588D01*
X0011403Y0386559D01*
X0011444Y0386527D01*
X0011483Y0386492D01*
X0011518Y0386454D01*
X0011551Y0386413D01*
X0011581Y0386371D01*
X0011607Y0386326D01*
X0011630Y0386279D01*
X0011649Y0386230D01*
X0011665Y0386180D01*
X0011677Y0386130D01*
X0011685Y0386078D01*
X0011689Y0386026D01*
X0011689Y0385974D01*
X0011685Y0385922D01*
X0011677Y0385870D01*
X0011665Y0385820D01*
X0011649Y0385770D01*
X0011630Y0385721D01*
X0011607Y0385674D01*
X0011581Y0385629D01*
X0011551Y0385587D01*
X0011518Y0385546D01*
X0011483Y0385508D01*
X0011444Y0385473D01*
X0011403Y0385441D01*
X0011359Y0385412D01*
X0011314Y0385387D01*
X0011267Y0385365D01*
X0011218Y0385346D01*
X0011168Y0385332D01*
X0011117Y0385321D01*
X0011065Y0385314D01*
X0011013Y0385311D01*
X0010961Y0385312D01*
X0010909Y0385317D01*
X0010858Y0385326D01*
X0010807Y0385339D01*
X0010758Y0385355D01*
X0010709Y0385375D01*
X0010663Y0385399D01*
X0010619Y0385426D01*
X0010576Y0385457D01*
X0010536Y0385490D01*
X0010499Y0385527D01*
X0010465Y0385566D01*
X0010434Y0385608D01*
X0010405Y0385652D01*
X0010381Y0385698D01*
X0010360Y0385745D01*
X0010342Y0385795D01*
X0010329Y0385845D01*
X0010319Y0385896D01*
X0010313Y0385948D01*
X0010311Y0386000D01*
M02*
