%
M48
M72
T01C0.01378
T02C0.03200
T03C0.04000
%
T01
X11000Y386000
X161000Y386000
X161000Y206000
X306000Y206000
X306000Y386000
X306000Y11000
X161000Y11000
X11000Y11000
T02
X41000Y21000
X41000Y31000
X41000Y41000
X41000Y51000
X41000Y61000
X41000Y71000
X41000Y81000
X41000Y91000
X41000Y101000
X41000Y116000
X41000Y126000
X41000Y136000
X41000Y146000
X41000Y156000
X41000Y166000
X41000Y176000
X41000Y186000
X41000Y196000
X41000Y211000
X41000Y221000
X41000Y231000
X41000Y241000
X41000Y251000
X41000Y261000
X41000Y271000
X41000Y281000
X41000Y291000
X61000Y281000
X61000Y271000
X61000Y261000
X61000Y251000
X61000Y241000
X61000Y231000
X61000Y221000
X61000Y211000
X61000Y186000
X61000Y176000
X61000Y166000
X61000Y156000
X61000Y146000
X61000Y136000
X61000Y126000
X61000Y116000
X61000Y91000
X61000Y81000
X61000Y71000
X61000Y61000
X61000Y51000
X61000Y41000
X61000Y31000
X61000Y21000
X91000Y21000
X91000Y31000
X91000Y41000
X91000Y51000
X91000Y61000
X91000Y71000
X91000Y81000
X91000Y91000
X91000Y116000
X91000Y126000
X91000Y136000
X91000Y146000
X91000Y156000
X91000Y166000
X91000Y176000
X91000Y186000
X91000Y211000
X91000Y221000
X91000Y231000
X91000Y241000
X91000Y251000
X91000Y261000
X91000Y271000
X91000Y281000
X196000Y196000
X196000Y186000
X196000Y176000
X196000Y166000
X196000Y156000
X196000Y146000
X196000Y136000
X196000Y126000
X196000Y116000
X196000Y101000
X196000Y91000
X196000Y81000
X196000Y71000
X196000Y61000
X196000Y51000
X196000Y41000
X196000Y31000
X196000Y21000
X216000Y21000
X216000Y31000
X216000Y41000
X216000Y51000
X216000Y61000
X216000Y71000
X216000Y81000
X216000Y91000
X216000Y116000
X216000Y126000
X216000Y136000
X216000Y146000
X216000Y156000
X216000Y166000
X216000Y176000
X216000Y186000
X246000Y186000
X246000Y176000
X246000Y166000
X246000Y156000
X246000Y146000
X246000Y136000
X246000Y126000
X246000Y116000
X246000Y91000
X246000Y81000
X246000Y71000
X246000Y61000
X246000Y51000
X246000Y41000
X246000Y31000
X246000Y21000
T03
X16000Y371000
X26000Y371000
X36000Y371000
X46000Y371000
X56000Y371000
X66000Y371000
X76000Y371000
X86000Y371000
X96000Y371000
X106000Y371000
X116000Y371000
X126000Y371000
X136000Y371000
X146000Y371000
X156000Y371000
X156000Y356000
X146000Y356000
X146000Y341000
X156000Y341000
X156000Y326000
X146000Y326000
X136000Y326000
X126000Y326000
X116000Y326000
X106000Y326000
X96000Y326000
X86000Y326000
X76000Y326000
X66000Y326000
X56000Y326000
X46000Y326000
X36000Y326000
X26000Y326000
X16000Y326000
X16000Y311000
X26000Y311000
X36000Y311000
X46000Y311000
X56000Y311000
X66000Y311000
X76000Y311000
X86000Y311000
X96000Y311000
X106000Y311000
X116000Y311000
X126000Y311000
X136000Y311000
X146000Y311000
X156000Y311000
X181000Y310500
X181000Y320500
X181000Y300500
X181000Y290500
X181000Y271000
X181000Y261000
X181000Y251000
X181000Y241000
X201000Y241000
X201000Y251000
X201000Y261000
X201000Y271000
X201000Y281000
X201000Y291000
X201000Y301000
X201000Y311000
X201000Y321000
X201000Y331000
X201000Y341000
X201000Y351000
X201000Y361000
X201000Y371000
X201000Y381000
X211000Y381000
X211000Y371000
X211000Y361000
X211000Y351000
X211000Y341000
X211000Y331000
X211000Y321000
X211000Y311000
X211000Y301000
X211000Y291000
X211000Y281000
X211000Y271000
X211000Y261000
X211000Y251000
X211000Y241000
X231000Y241000
X231000Y251000
X241000Y251000
X241000Y241000
X251000Y241000
X251000Y251000
X271000Y251000
X271000Y261000
X271000Y271000
X271000Y281000
X271000Y291000
X271000Y301000
X271000Y311000
X271000Y321000
X271000Y331000
X271000Y341000
X271000Y351000
X271000Y361000
X271000Y371000
X271000Y381000
X281000Y381000
X281000Y371000
X281000Y361000
X281000Y351000
X281000Y341000
X281000Y331000
X281000Y321000
X281000Y311000
X281000Y301000
X281000Y291000
X281000Y281000
X281000Y271000
X281000Y261000
X281000Y251000
X281000Y241000
X271000Y241000
X266000Y216000
X256000Y216000
X246000Y216000
X236000Y216000
X226000Y216000
X216000Y216000
X181000Y186000
X181000Y176000
X181000Y166000
X181000Y156000
X181000Y146000
X181000Y136000
X181000Y126000
X181000Y116000
X171000Y116000
X171000Y126000
X171000Y136000
X171000Y146000
X171000Y156000
X171000Y166000
X171000Y176000
X171000Y186000
X146000Y231000
X136000Y231000
X126000Y231000
X116000Y231000
X106000Y231000
X106000Y261000
X116000Y261000
X126000Y261000
X136000Y261000
X146000Y261000
X136000Y341000
X126000Y341000
X116000Y341000
X106000Y341000
X96000Y341000
X86000Y341000
X86000Y356000
X96000Y356000
X106000Y356000
X116000Y356000
X126000Y356000
X136000Y356000
X181000Y371000
X181000Y361000
X181000Y351000
X181000Y341000
X76000Y341000
X66000Y341000
X56000Y341000
X46000Y341000
X36000Y341000
X26000Y341000
X16000Y341000
X16000Y356000
X26000Y356000
X36000Y356000
X46000Y356000
X56000Y356000
X66000Y356000
X76000Y356000
X26000Y281000
X26000Y271000
X26000Y261000
X26000Y251000
X26000Y241000
X26000Y231000
X26000Y221000
X26000Y211000
X16000Y211000
X16000Y221000
X16000Y231000
X16000Y241000
X16000Y251000
X16000Y261000
X16000Y271000
X16000Y281000
X16000Y186000
X16000Y176000
X16000Y166000
X16000Y156000
X16000Y146000
X16000Y136000
X16000Y126000
X16000Y116000
X26000Y116000
X26000Y126000
X26000Y136000
X26000Y146000
X26000Y156000
X26000Y166000
X26000Y176000
X26000Y186000
X106000Y166000
X116000Y166000
X126000Y166000
X136000Y166000
X146000Y166000
X146000Y136000
X136000Y136000
X126000Y136000
X116000Y136000
X106000Y136000
X106000Y71000
X116000Y71000
X126000Y71000
X136000Y71000
X146000Y71000
X171000Y71000
X171000Y61000
X171000Y51000
X171000Y41000
X171000Y31000
X171000Y21000
X181000Y21000
X181000Y31000
X181000Y41000
X181000Y51000
X181000Y61000
X181000Y71000
X181000Y81000
X181000Y91000
X171000Y91000
X171000Y81000
X146000Y41000
X136000Y41000
X126000Y41000
X116000Y41000
X106000Y41000
X26000Y41000
X26000Y51000
X26000Y61000
X26000Y71000
X26000Y81000
X26000Y91000
X16000Y91000
X16000Y81000
X16000Y71000
X16000Y61000
X16000Y51000
X16000Y41000
X16000Y31000
X16000Y21000
X26000Y21000
X26000Y31000
X261000Y41000
X271000Y41000
X281000Y41000
X291000Y41000
X301000Y41000
X301000Y71000
X291000Y71000
X281000Y71000
X271000Y71000
X261000Y71000
X301000Y136000
X291000Y136000
X281000Y136000
X271000Y136000
X261000Y136000
X261000Y166000
X271000Y166000
X281000Y166000
X291000Y166000
X301000Y166000
X301000Y241000
X301000Y251000
X301000Y261000
X301000Y271000
X301000Y291000
X301000Y301000
X301000Y311000
X301000Y321000
X301000Y341000
X301000Y351000
X301000Y361000
X301000Y371000
M30
